<svg width="50" height="50" xmlns="http://www.w3.org/2000/svg">
 <!-- Created with Method Draw - http://github.com/duopixel/Method-Draw/ -->
 <g>
  <title>background</title>
  <rect fill="none" id="canvas_background" height="52" width="52" y="-1" x="-1"/>
 </g>
 <g>
  <title>Layer 1</title>
  <path stroke="null" id="svg_2" d="m27.587581,39.379837c1.285768,-0.47192 2.340387,-0.91138 0.34307,-0.924241c-1.763914,0.237069 -6.327003,-1.505471 -2.669875,-2.36197c2.287947,-0.893316 7.494809,1.170041 7.522563,-2.359366c-0.413892,-2.211858 -7.130301,-0.484856 -4.92082,-3.451249c2.433337,-0.994973 7.258445,1.349312 8.074724,-1.729528c-0.748275,-2.985301 -5.428528,-1.080095 -7.780942,-1.90513c-2.28048,0.470387 -2.881044,-2.528384 -0.321607,-2.075756c5.916716,-0.319208 11.874703,0.149267 17.771036,-0.502156c0.952457,-0.527572 1.656512,-3.772905 0.454551,-3.991451c-8.589138,-0.177974 -17.193455,-0.014391 -25.768998,-0.545253c-3.080909,-0.031998 -0.726925,-3.321806 1.549692,-2.549205c2.168608,-0.710137 3.028034,-2.57217 4.619649,-4.410782c0.813339,-4.018854 -3.095655,-2.527235 -4.692061,-1.351226c-1.782619,1.168661 -4.848791,3.59447 -6.475366,4.867927c-1.425857,1.031027 -4.710927,2.175115 -6.709267,3.557192c-1.70811,0.607027 -3.577296,0.304816 -5.254974,0.413819c0,5.4451 0,10.89012 0,16.335219c4.746429,2.066725 9.74099,3.882138 15.003043,3.674465c3.082478,-0.012552 6.253494,0.10273 9.25558,-0.691306l0.000002,-0.000002zm-19.555507,1.746445c-2.422983,-0.930978 -4.84157,-1.873821 -7.242599,-2.860221c0.114902,-6.799771 0.229802,-13.599618 0.344697,-20.399389c1.917002,-0.0728 4.761517,0.878082 6.127911,-0.522059c3.673621,-1.179071 6.058727,-3.786914 9.279176,-5.744249c2.266331,-1.780815 4.07657,-2.388608 6.417385,-3.739147c1.777953,-0.822204 2.740629,-0.402338 4.74271,-0.043863c0.873198,1.428924 1.957206,2.167462 1.394705,4.88959c-1.173742,0.590417 -2.696944,4.558672 -0.390347,4.590209c6.421584,0.615369 12.946566,-0.249548 19.317636,0.825954c1.586448,2.147787 1.889001,6.972999 -1.014578,8.335022c-2.778668,0.803369 -5.708377,0.404861 -8.563197,0.501465c-0.000174,2.031894 0.335759,4.624884 -1.919521,5.645577c-1.665283,2.171978 -1.78239,5.362734 -4.465771,6.952027c-2.256805,2.312518 -5.469423,3.026871 -8.603021,2.950628c-5.138332,0.069659 -10.54689,0.562242 -15.425183,-1.381392l0,-0.000154l-0.000002,0.000003z" fill-opacity="null" stroke-width="1.5" fill="#000000"/>
 </g>
</svg>