<?xml version="1.0" standalone="no"?>
<!DOCTYPE svg PUBLIC "-//W3C//DTD SVG 20010904//EN"
 "http://www.w3.org/TR/2001/REC-SVG-20010904/DTD/svg10.dtd">
<svg version="1.0" xmlns="http://www.w3.org/2000/svg"
 width="228.000000pt" height="228.000000pt" viewBox="0 0 228.000000 228.000000"
 preserveAspectRatio="xMidYMid meet">
<metadata>
Created by potrace 1.11, written by Peter Selinger 2001-2013
</metadata>
<g transform="translate(0.000000,228.000000) scale(0.100000,-0.100000)"
fill="#000000" stroke="none">
<path d="M128 2114 c-104 -56 -146 -177 -98 -281 19 -43 61 -93 78 -93 5 0 16
-8 25 -17 13 -16 16 -82 20 -518 5 -557 6 -571 42 -715 9 -34 31 -87 46 -110
8 -14 18 -33 22 -43 3 -9 11 -17 17 -17 5 0 10 -5 10 -12 0 -36 176 -153 247
-164 142 -22 222 -13 320 36 65 33 143 105 179 166 27 45 65 149 61 167 -1 7
14 13 39 15 l40 3 12 -48 c7 -26 14 -53 15 -60 8 -34 57 -111 97 -152 88 -93
200 -140 326 -136 73 2 91 4 149 18 20 5 78 34 119 60 25 16 86 74 86 82 0 3
9 15 19 26 26 28 79 137 86 178 3 19 8 38 10 41 5 9 12 51 21 130 4 30 8 278
11 550 4 422 7 496 19 503 161 91 161 312 1 392 -42 21 -148 18 -195 -6 -92
-48 -139 -165 -105 -265 15 -45 70 -108 102 -119 10 -3 21 -13 23 -23 3 -18 2
-662 -2 -822 -2 -86 -9 -157 -24 -277 -12 -88 -61 -183 -125 -241 -57 -50
-160 -80 -261 -75 -107 5 -238 95 -282 193 -11 25 -22 48 -24 51 -2 4 26 16
62 29 101 34 194 94 253 164 14 15 30 33 36 40 25 25 86 165 99 229 58 284
-104 562 -386 663 -68 24 -181 33 -271 20 -151 -21 -309 -126 -395 -261 -93
-147 -112 -321 -56 -502 9 -29 21 -53 27 -53 6 0 8 -3 4 -6 -3 -3 7 -27 23
-52 72 -118 197 -211 337 -252 l41 -13 -16 -36 c-9 -20 -20 -40 -24 -46 -86
-116 -178 -167 -303 -167 -111 0 -192 35 -262 112 -27 29 -64 89 -68 110 -1 3
-7 25 -14 50 -8 25 -15 63 -17 85 -1 22 -6 78 -9 125 -8 91 -13 903 -7 932 2
10 12 20 21 23 27 8 77 61 96 101 21 45 23 140 2 160 -4 4 -7 14 -7 23 0 23
-55 78 -100 101 -48 24 -151 27 -192 4z"/>
</g>
</svg>
