<?xml version="1.0" encoding="UTF-8" standalone="no"?><!DOCTYPE svg PUBLIC "-//W3C//DTD SVG 1.1//EN" "http://www.w3.org/Graphics/SVG/1.1/DTD/svg11.dtd"><svg width="100%" height="100%" viewBox="0 0 50 50" version="1.1" xmlns="http://www.w3.org/2000/svg" xmlns:xlink="http://www.w3.org/1999/xlink" xml:space="preserve" xmlns:serif="http://www.serif.com/" style="fill-rule:evenodd;clip-rule:evenodd;stroke-linejoin:round;stroke-miterlimit:1.41421;"><rect id="canvas_background" x="-1" y="-1" width="52" height="52" style="fill:none;"/><g id="Layer1"><path d="M2.193,18.765l3.777,0.278l3.378,-0.96l13.435,-8.986l4.323,-0.092l0.509,3.607l-3.84,5.453l23.683,1.157l0.86,3.142l-1.325,2.636l-9.453,0.402l-0.824,4.477l-3.819,7.913l-6.276,3.345l-9.637,0.319l-8.353,-1.182l-6.479,-2.837l0.041,-18.672Z" style="fill:#b7b7b7;"/></g><path id="svg_2" d="M27.588,39.38c1.285,-0.472 2.34,-0.912 0.343,-0.924c-1.764,0.237 -6.327,-1.506 -2.67,-2.362c2.288,-0.894 7.495,1.17 7.522,-2.36c-0.414,-2.212 -7.13,-0.485 -4.92,-3.451c2.433,-0.995 7.258,1.349 8.074,-1.73c-0.748,-2.985 -5.428,-1.08 -7.781,-1.905c-2.28,0.471 -2.881,-2.528 -0.321,-2.075c5.916,-0.32 11.874,0.149 17.771,-0.503c0.952,-0.527 1.656,-3.772 0.454,-3.991c-8.589,-0.178 -17.193,-0.014 -25.769,-0.545c-3.081,-0.032 -0.727,-3.322 1.55,-2.549c2.169,-0.711 3.028,-2.573 4.62,-4.411c0.813,-4.019 -3.096,-2.527 -4.692,-1.351c-1.783,1.168 -4.849,3.594 -6.476,4.867c-1.426,1.031 -4.711,2.176 -6.709,3.558c-1.708,0.607 -3.577,0.304 -5.255,0.413c0,5.446 0,10.891 0,16.336c4.746,2.066 9.741,3.882 15.003,3.674c3.082,-0.012 6.253,0.103 9.256,-0.691l0,0l0,0Zm-19.556,1.746c-2.423,-0.931 -4.841,-1.874 -7.243,-2.86c0.115,-6.8 0.23,-13.6 0.345,-20.399c1.917,-0.073 4.762,0.878 6.128,-0.522c3.674,-1.179 6.059,-3.787 9.279,-5.745c2.267,-1.78 4.077,-2.388 6.418,-3.739c1.778,-0.822 2.74,-0.402 4.742,-0.044c0.874,1.429 1.958,2.168 1.395,4.89c-1.174,0.59 -2.697,4.559 -0.39,4.59c6.421,0.616 12.946,-0.249 19.317,0.826c1.587,2.148 1.889,6.973 -1.014,8.335c-2.779,0.803 -5.709,0.405 -8.563,0.502c-0.001,2.031 0.335,4.624 -1.92,5.645c-1.665,2.172 -1.782,5.363 -4.466,6.952c-2.257,2.313 -5.469,3.027 -8.603,2.951c-5.138,0.069 -10.547,0.562 -15.425,-1.382l0,0l0,0l0,0Z" style="fill-rule:nonzero;"/></svg>